<?xml version="1.0" standalone="no"?>
<!DOCTYPE svg PUBLIC "-//W3C//DTD SVG 20010904//EN"
 "http://www.w3.org/TR/2001/REC-SVG-20010904/DTD/svg10.dtd">
<svg version="1.0" xmlns="http://www.w3.org/2000/svg"
 width="1842.000000pt" height="1033.000000pt" viewBox="0 0 1842.000000 1033.000000"
 preserveAspectRatio="xMidYMid meet">

<g transform="translate(0.000000,1033.000000) scale(0.100000,-0.100000)"
fill="#000000" stroke="none">
<path d="M4820 7255 l0 -3075 790 0 790 0 0 3075 0 3075 -790 0 -790 0 0
-3075z"/>
<path d="M7240 9680 l0 -650 790 0 790 0 0 650 0 650 -790 0 -790 0 0 -650z"/>
<path d="M13820 7255 l0 -3075 795 0 795 0 2 1026 3 1026 575 -963 575 -964 3
-62 4 -63 924 0 925 0 -6 73 c-9 106 -22 162 -50 217 -14 27 -327 490 -696
1030 -369 540 -669 987 -666 994 3 7 269 378 592 825 608 843 643 892 669 955
18 44 46 173 46 216 l0 30 -884 0 -884 0 -7 -57 c-4 -32 -15 -78 -26 -102 -10
-24 -261 -426 -556 -895 l-538 -851 -3 1858 -2 1857 -795 0 -795 0 0 -3075z"/>
<path d="M785 9969 c-129 -15 -272 -55 -374 -105 -207 -102 -331 -291 -387
-589 -18 -96 -19 -188 -19 -2195 0 -2007 1 -2099 19 -2195 82 -437 313 -644
774 -694 71 -8 607 -11 1727 -11 l1625 0 0 860 0 860 -1020 0 c-720 0 -1035 3
-1072 11 -75 16 -131 73 -147 149 -8 40 -11 340 -9 1080 3 1021 3 1025 24
1071 24 52 60 82 119 98 28 8 345 11 1063 11 l1022 0 0 830 0 830 -1632 -1
c-898 -1 -1669 -6 -1713 -10z"/>
<path d="M7240 6350 l0 -2170 790 0 790 0 0 2170 0 2170 -790 0 -790 0 0
-2170z"/>
<path d="M10245 8509 c-385 -49 -565 -234 -615 -632 -14 -111 -14 -2943 0
-3054 43 -343 188 -532 462 -602 154 -40 211 -41 1641 -41 l1387 0 0 720 0
720 -893 0 -893 0 -44 23 c-24 12 -53 35 -64 50 -21 28 -21 38 -21 697 0 659
0 669 21 697 11 15 40 38 64 51 l44 22 893 0 893 0 0 680 0 680 -1402 -1
c-772 -1 -1434 -5 -1473 -10z"/>
<path d="M10 2203 c0 -1542 0 -1545 51 -1695 114 -342 419 -525 839 -505 260
13 441 86 583 236 73 78 114 145 151 249 57 161 56 117 56 1698 l0 1454 -270
0 -270 0 -2 -1447 -3 -1448 -22 -53 c-32 -78 -66 -117 -130 -148 -48 -24 -69
-28 -142 -28 -186 -1 -282 78 -311 256 -6 41 -10 553 -10 1466 l0 1402 -260 0
-260 0 0 -1437z"/>
<path d="M2250 1845 l0 -1795 255 0 255 0 0 1247 c0 700 4 1243 9 1238 4 -6
108 -448 230 -984 122 -536 224 -978 227 -983 5 -8 324 -12 324 -3 0 16 442
1943 450 1960 5 12 9 -476 9 -1227 l1 -1248 270 0 270 0 0 1795 0 1795 -365 0
-365 0 -5 -22 c-3 -13 -98 -446 -210 -962 -177 -811 -213 -969 -215 -945 -1 2
-96 436 -213 964 l-213 960 -357 3 -357 2 0 -1795z"/>
<path d="M5100 2203 c0 -1542 0 -1545 51 -1695 114 -342 419 -525 839 -505
260 13 441 86 583 236 73 78 114 145 151 249 57 161 56 117 56 1698 l0 1454
-270 0 -270 0 -2 -1447 -3 -1448 -22 -53 c-32 -78 -66 -117 -130 -148 -48 -24
-69 -28 -142 -28 -186 -1 -282 78 -311 256 -6 41 -10 553 -10 1466 l0 1402
-260 0 -260 0 0 -1437z"/>
<path d="M7745 3628 c-4 -15 -615 -3559 -615 -3570 0 -5 121 -8 269 -8 l269 0
6 27 c3 16 28 186 56 378 27 193 52 365 55 382 l6 33 298 0 299 0 12 -87 c7
-49 34 -232 59 -408 l47 -320 278 -3 278 -2 -6 27 c-3 16 -141 811 -306 1768
-165 957 -303 1752 -306 1768 l-6 27 -344 0 c-267 0 -346 -3 -349 -12z m434
-1330 c46 -315 96 -655 111 -755 l27 -183 -229 0 -230 0 6 28 c5 25 216 1467
216 1478 0 2 4 4 8 4 4 0 46 -258 91 -572z"/>
<path d="M9440 1846 l0 -1796 270 0 270 0 0 760 0 761 128 -3 127 -3 216 -755
216 -755 287 -3 c157 -1 286 0 286 3 0 3 -108 362 -240 797 -132 435 -243 801
-246 813 -4 18 4 28 45 55 75 47 173 158 219 248 87 168 112 309 112 637 0
246 -13 367 -50 490 -62 199 -189 354 -360 439 -52 25 -140 58 -195 73 l-100
27 -492 4 -493 3 0 -1795z m935 1264 c41 -15 75 -38 106 -70 87 -89 115 -222
106 -500 -8 -228 -34 -310 -122 -388 -72 -63 -114 -74 -312 -80 l-173 -4 0
537 0 538 168 -5 c142 -4 176 -9 227 -28z"/>
<path d="M12065 3628 c-4 -15 -615 -3559 -615 -3570 0 -5 121 -8 269 -8 l269
0 6 27 c3 16 28 186 56 378 27 193 52 365 55 382 l6 33 298 0 299 0 12 -87 c7
-49 34 -232 59 -408 l47 -320 278 -3 278 -2 -6 27 c-3 16 -141 811 -306 1768
-165 957 -303 1752 -306 1768 l-6 27 -344 0 c-267 0 -346 -3 -349 -12z m434
-1330 c46 -315 96 -655 111 -755 l27 -183 -229 0 -230 0 6 28 c5 25 216 1467
216 1478 0 2 4 4 8 4 4 0 46 -258 91 -572z"/>
<path d="M13770 1845 l0 -1795 255 0 255 0 0 1247 c0 700 4 1243 9 1238 4 -6
108 -448 230 -984 122 -536 224 -978 227 -983 5 -8 324 -12 324 -3 0 16 442
1943 450 1960 5 12 9 -476 9 -1227 l1 -1248 270 0 270 0 0 1795 0 1795 -365 0
-365 0 -5 -22 c-3 -13 -98 -446 -210 -962 -177 -811 -213 -969 -215 -945 -1 2
-96 436 -213 964 l-213 960 -357 3 -357 2 0 -1795z"/>
<path d="M17075 3628 c-4 -15 -615 -3559 -615 -3570 0 -5 121 -8 269 -8 l269
0 6 27 c3 16 28 186 56 378 27 193 52 365 55 382 l6 33 298 0 299 0 12 -87 c7
-49 34 -232 59 -408 l47 -320 278 -3 278 -2 -6 27 c-3 16 -141 811 -306 1768
-165 957 -303 1752 -306 1768 l-6 27 -344 0 c-267 0 -346 -3 -349 -12z m434
-1330 c46 -315 96 -655 111 -755 l27 -183 -229 0 -230 0 6 28 c5 25 216 1467
216 1478 0 2 4 4 8 4 4 0 46 -258 91 -572z"/>
</g>
</svg>
